<svg xmlns="http://www.w3.org/2000/svg" version="1.1" xmlns:xlink="http://www.w3.org/1999/xlink" width="180" height="180"><svg width="180" height="180" viewBox="0 0 180 180" fill="none" xmlns="http://www.w3.org/2000/svg">
<rect width="180" height="180" rx="16" fill="#6F974D"></rect>
<path d="M56.728 135V44.12H122.264V59.352H74.264V81.24H98.968C109.123 81.24 116.76 83.6293 121.88 88.408C127 93.1867 129.56 99.5867 129.56 107.608C129.56 112.984 128.451 117.72 126.232 121.816C124.013 125.912 120.728 129.155 116.376 131.544C112.024 133.848 106.52 135 99.864 135H56.728ZM74.264 119.768H97.432C100.845 119.768 103.576 119.171 105.624 117.976C107.672 116.696 109.165 115.117 110.104 113.24C111.043 111.277 111.512 109.229 111.512 107.096C111.512 104.963 111.085 103 110.232 101.208C109.464 99.3307 108.056 97.8373 106.008 96.728C103.96 95.5333 101.016 94.936 97.176 94.936H74.264V119.768Z" fill="white"></path>
</svg><style>@media (prefers-color-scheme: light) { :root { filter: none; } }
@media (prefers-color-scheme: dark) { :root { filter: none; } }
</style></svg>